<svg width="64" height="61" viewBox="0 0 64 61" fill="none" xmlns="http://www.w3.org/2000/svg">
<g clip-path="url(#clip0_356_3824)">
<path d="M45.3333 27.8096V7.58447H18.6667V17.697H8V53.091H29.3333V42.9784H34.6667V53.091H56V27.8096H45.3333ZM18.6667 48.0347H13.3333V42.9784H18.6667V48.0347ZM18.6667 37.9221H13.3333V32.8659H18.6667V37.9221ZM18.6667 27.8096H13.3333V22.7533H18.6667V27.8096ZM29.3333 37.9221H24V32.8659H29.3333V37.9221ZM29.3333 27.8096H24V22.7533H29.3333V27.8096ZM29.3333 17.697H24V12.6407H29.3333V17.697ZM40 37.9221H34.6667V32.8659H40V37.9221ZM40 27.8096H34.6667V22.7533H40V27.8096ZM40 17.697H34.6667V12.6407H40V17.697ZM50.6667 48.0347H45.3333V42.9784H50.6667V48.0347ZM50.6667 37.9221H45.3333V32.8659H50.6667V37.9221Z" fill="url(#paint0_linear_356_3824)"/>
</g>
<defs>
<linearGradient id="paint0_linear_356_3824" x1="8" y1="7.58447" x2="62.4265" y2="17.3787" gradientUnits="userSpaceOnUse">
<stop stop-color="#209777"/>
<stop offset="1" stop-color="#BEEF71"/>
<stop offset="1" stop-color="#BEEF71"/>
</linearGradient>
<clipPath id="clip0_356_3824">
<rect width="64" height="60.6753" fill="white"/>
</clipPath>
</defs>
</svg>
