<svg width="64" height="64" viewBox="0 0 64 64" fill="none" xmlns="http://www.w3.org/2000/svg">
<path d="M32 10.6668C43.76 10.6668 53.3333 20.2402 53.3333 32.0002C53.3333 43.7602 43.76 53.3335 32 53.3335C20.24 53.3335 10.6666 43.7602 10.6666 32.0002C10.6666 20.2402 20.24 10.6668 32 10.6668ZM32 5.3335C17.28 5.3335 5.33331 17.2802 5.33331 32.0002C5.33331 46.7202 17.28 58.6668 32 58.6668C46.72 58.6668 58.6666 46.7202 58.6666 32.0002C58.6666 17.2802 46.72 5.3335 32 5.3335ZM32 40.0002L21.3333 29.3335H42.6666L32 40.0002Z" fill="#252525"/>
</svg>
