<svg width="48" height="48" viewBox="0 0 48 48" fill="none" xmlns="http://www.w3.org/2000/svg">
<g clip-path="url(#clip0_369_4205)">
<path d="M12 27H21V30H12V27Z" fill="#F9F9F9"/>
<path d="M12 33H27V36H12V33Z" fill="#F9F9F9"/>
<path d="M39 6H9C8.20459 6.00079 7.44199 6.31712 6.87956 6.87956C6.31712 7.44199 6.00079 8.20459 6 9V39C6.00079 39.7954 6.31712 40.558 6.87956 41.1204C7.44199 41.6829 8.20459 41.9992 9 42H39C39.7954 41.9992 40.558 41.6829 41.1204 41.1204C41.6829 40.558 41.9992 39.7954 42 39V9C41.9992 8.20459 41.6829 7.44199 41.1204 6.87956C40.558 6.31712 39.7954 6.00079 39 6V6ZM27 9V15H21V9H27ZM9 39V9H18V18H30V9H39L39.0015 39H9Z" fill="#F9F9F9"/>
</g>
<defs>
<clipPath id="clip0_369_4205">
<rect width="48" height="48" fill="white"/>
</clipPath>
</defs>
</svg>
