<svg width="48" height="48" viewBox="0 0 48 48" fill="none" xmlns="http://www.w3.org/2000/svg">
<path d="M12 27H21V30H12V27Z" fill="url(#paint0_linear_163_3699)"/>
<path d="M12 33H27V36H12V33Z" fill="url(#paint1_linear_163_3699)"/>
<path d="M39 6H9C8.20459 6.00079 7.44199 6.31712 6.87956 6.87956C6.31712 7.44199 6.00079 8.20459 6 9V39C6.00079 39.7954 6.31712 40.558 6.87956 41.1204C7.44199 41.6829 8.20459 41.9992 9 42H39C39.7954 41.9992 40.558 41.6829 41.1204 41.1204C41.6829 40.558 41.9992 39.7954 42 39V9C41.9992 8.20459 41.6829 7.44199 41.1204 6.87956C40.558 6.31712 39.7954 6.00079 39 6ZM27 9V15H21V9H27ZM9 39V9H18V18H30V9H39L39.0015 39H9Z" fill="url(#paint2_linear_163_3699)"/>
<defs>
<linearGradient id="paint0_linear_163_3699" x1="12" y1="27" x2="20.3485" y2="31.2729" gradientUnits="userSpaceOnUse">
<stop stop-color="#209777"/>
<stop offset="1" stop-color="#BEEF71"/>
<stop offset="1" stop-color="#BEEF71"/>
</linearGradient>
<linearGradient id="paint1_linear_163_3699" x1="12" y1="33" x2="22.1636" y2="41.6698" gradientUnits="userSpaceOnUse">
<stop stop-color="#209777"/>
<stop offset="1" stop-color="#BEEF71"/>
<stop offset="1" stop-color="#BEEF71"/>
</linearGradient>
<linearGradient id="paint2_linear_163_3699" x1="6" y1="6" x2="46.9499" y2="12.9863" gradientUnits="userSpaceOnUse">
<stop stop-color="#209777"/>
<stop offset="1" stop-color="#BEEF71"/>
<stop offset="1" stop-color="#BEEF71"/>
</linearGradient>
</defs>
</svg>
