<svg width="64" height="64" viewBox="0 0 64 64" fill="none" xmlns="http://www.w3.org/2000/svg">
<path d="M16 36H28V40H16V36Z" fill="#252525"/>
<path d="M16 44H36V48H16V44Z" fill="#252525"/>
<path d="M52 8H12C10.9395 8.00106 9.92266 8.42283 9.17274 9.17274C8.42283 9.92266 8.00106 10.9395 8 12V52C8.00106 53.0605 8.42283 54.0773 9.17274 54.8273C9.92266 55.5772 10.9395 55.9989 12 56H52C53.0605 55.9989 54.0773 55.5772 54.8273 54.8273C55.5772 54.0773 55.9989 53.0605 56 52V12C55.9989 10.9395 55.5772 9.92266 54.8273 9.17274C54.0773 8.42283 53.0605 8.00106 52 8ZM36 12V20H28V12H36ZM12 52V12H24V24H40V12H52L52.002 52H12Z" fill="#252525"/>
</svg>
