<svg width="64" height="64" viewBox="0 0 64 64" fill="none" xmlns="http://www.w3.org/2000/svg">
<path d="M51.6 26.7732C49.7867 17.5732 41.7067 10.6665 32 10.6665C24.2933 10.6665 17.6 15.0398 14.2667 21.4398C6.24 22.2932 0 29.0932 0 37.3332C0 46.1598 7.17333 53.3332 16 53.3332H50.6667C58.0267 53.3332 64 47.3598 64 39.9998C64 32.9598 58.5333 27.2532 51.6 26.7732ZM50.6667 47.9998H16C10.1067 47.9998 5.33333 43.2265 5.33333 37.3332C5.33333 31.8665 9.41333 27.3065 14.8267 26.7465L17.68 26.4532L19.0133 23.9198C21.5467 19.0398 26.5067 15.9998 32 15.9998C38.9867 15.9998 45.0133 20.9598 46.3733 27.8132L47.1733 31.8132L51.2533 32.1065C55.4133 32.3732 58.6667 35.8665 58.6667 39.9998C58.6667 44.3998 55.0667 47.9998 50.6667 47.9998ZM21.3333 34.6665H28.1333V42.6665H35.8667V34.6665H42.6667L32 23.9998L21.3333 34.6665Z" fill="#252525"/>
</svg>
