<svg width="64" height="64" viewBox="0 0 64 64" fill="none" xmlns="http://www.w3.org/2000/svg">
<path d="M32 17.3333C42.1067 17.3333 51.12 23.0133 55.52 32C51.12 40.9867 42.1333 46.6667 32 46.6667C21.8667 46.6667 12.88 40.9867 8.47999 32C12.88 23.0133 21.8933 17.3333 32 17.3333ZM32 12C18.6667 12 7.27999 20.2933 2.66666 32C7.27999 43.7067 18.6667 52 32 52C45.3333 52 56.72 43.7067 61.3333 32C56.72 20.2933 45.3333 12 32 12ZM32 25.3333C35.68 25.3333 38.6667 28.32 38.6667 32C38.6667 35.68 35.68 38.6667 32 38.6667C28.32 38.6667 25.3333 35.68 25.3333 32C25.3333 28.32 28.32 25.3333 32 25.3333ZM32 20C25.3867 20 20 25.3867 20 32C20 38.6133 25.3867 44 32 44C38.6133 44 44 38.6133 44 32C44 25.3867 38.6133 20 32 20Z" fill="#252525"/>
</svg>
