<svg width="64" height="64" viewBox="0 0 64 64" fill="none" xmlns="http://www.w3.org/2000/svg">
<path d="M32.8091 17.3333C42.6603 17.3333 51.4457 23.0133 55.7345 32C51.4457 40.9867 42.6863 46.6667 32.8091 46.6667C22.932 46.6667 14.1725 40.9867 9.88377 32C14.1725 23.0133 22.958 17.3333 32.8091 17.3333ZM32.8091 12C19.8129 12 8.7141 20.2933 4.21741 32C8.7141 43.7067 19.8129 52 32.8091 52C45.8054 52 56.9041 43.7067 61.4008 32C56.9041 20.2933 45.8054 12 32.8091 12ZM32.8091 25.3333C36.3961 25.3333 39.3072 28.32 39.3072 32C39.3072 35.68 36.3961 38.6667 32.8091 38.6667C29.2222 38.6667 26.311 35.68 26.311 32C26.311 28.32 29.2222 25.3333 32.8091 25.3333ZM32.8091 20C26.363 20 21.1125 25.3867 21.1125 32C21.1125 38.6133 26.363 44 32.8091 44C39.2553 44 44.5057 38.6133 44.5057 32C44.5057 25.3867 39.2553 20 32.8091 20Z" fill="#252525"/>
<line y1="-1" x2="68.2914" y2="-1" transform="matrix(-0.837344 0.546677 -0.527108 -0.849798 58.8015 10.6665)" stroke="black" stroke-width="2"/>
<line y1="-1" x2="73.328" y2="-1" transform="matrix(-0.837344 0.546677 -0.527108 -0.849798 61.4008 13.3335)" stroke="white" stroke-width="2"/>
</svg>
