<svg width="64" height="64" viewBox="0 0 64 64" fill="none" xmlns="http://www.w3.org/2000/svg">
<path d="M27.4667 17.9733C27.6453 18.1659 27.7843 18.3917 27.8756 18.638C27.9669 18.8843 28.0088 19.1462 27.9989 19.4087C27.989 19.6712 27.9274 19.9291 27.8178 20.1678C27.7082 20.4066 27.5527 20.6213 27.36 20.7999L19.6054 27.9999L27.36 35.1999C27.5526 35.3785 27.7082 35.5933 27.8178 35.832C27.9274 36.0707 27.9889 36.3287 27.9988 36.5912C28.0087 36.8536 27.9668 37.1155 27.8755 37.3618C27.7842 37.6081 27.6453 37.834 27.4667 38.0266C27.2881 38.2192 27.0733 38.3747 26.8346 38.4843C26.5959 38.5939 26.3379 38.6554 26.0755 38.6653C25.813 38.6753 25.5511 38.6334 25.3048 38.5421C25.0585 38.4508 24.8326 38.3119 24.64 38.1333L15.3067 29.4666C15.1048 29.2794 14.9437 29.0525 14.8335 28.8001C14.7233 28.5477 14.6664 28.2753 14.6664 27.9999C14.6664 27.7245 14.7233 27.4521 14.8335 27.1998C14.9437 26.9474 15.1048 26.7205 15.3067 26.5333L24.64 17.8666C24.8326 17.688 25.0585 17.549 25.3048 17.4577C25.5511 17.3664 25.813 17.3245 26.0755 17.3344C26.338 17.3443 26.5959 17.4059 26.8346 17.5155C27.0733 17.6251 27.2881 17.7806 27.4667 17.9733ZM36.64 20.7999C36.2511 20.4392 36.0213 19.9388 36.0013 19.4087C35.9813 18.8786 36.1727 18.3622 36.5334 17.9733C36.8941 17.5843 37.3945 17.3545 37.9246 17.3345C38.4547 17.3145 38.9711 17.5059 39.36 17.8666L48.6934 26.5333C48.8953 26.7205 49.0564 26.9474 49.1666 27.1998C49.2768 27.4521 49.3336 27.7245 49.3336 27.9999C49.3336 28.2753 49.2768 28.5477 49.1666 28.8001C49.0564 29.0525 48.8953 29.2794 48.6934 29.4666L39.36 38.1333C38.9711 38.494 38.4547 38.6854 37.9246 38.6653C37.3945 38.6453 36.8941 38.4156 36.5334 38.0266C36.1727 37.6376 35.9813 37.1213 36.0013 36.5912C36.0213 36.0611 36.2511 35.5606 36.64 35.1999L44.3947 27.9999L36.64 20.7999Z" fill="#252525"/>
<path fill-rule="evenodd" clip-rule="evenodd" d="M4 11.3337C4 8.75766 6.09067 6.66699 8.66667 6.66699H55.3333C57.9093 6.66699 60 8.75766 60 11.3337V44.667C60 45.9047 59.5083 47.0917 58.6332 47.9668C57.758 48.842 56.571 49.3337 55.3333 49.3337H29.4933L19.9653 58.8617C19.422 59.4048 18.7298 59.7746 17.9763 59.9244C17.2228 60.0742 16.4418 59.9972 15.732 59.7033C15.0222 59.4093 14.4155 58.9115 13.9886 58.2729C13.5616 57.6342 13.3336 56.8832 13.3333 56.115V49.3337H8.66667C7.42899 49.3337 6.24201 48.842 5.36684 47.9668C4.49167 47.0917 4 45.9047 4 44.667V11.3337ZM8.66667 10.667C8.48986 10.667 8.32029 10.7372 8.19526 10.8623C8.07024 10.9873 8 11.1568 8 11.3337V44.667C8 45.035 8.29867 45.3337 8.66667 45.3337H15.3333C15.8638 45.3337 16.3725 45.5444 16.7475 45.9194C17.1226 46.2945 17.3333 46.8032 17.3333 47.3337V55.8403L27.2533 45.9203C27.628 45.5451 28.1364 45.3341 28.6667 45.3337H55.3333C55.5101 45.3337 55.6797 45.2634 55.8047 45.1384C55.9298 45.0134 56 44.8438 56 44.667V11.3337C56 11.1568 55.9298 10.9873 55.8047 10.8623C55.6797 10.7372 55.5101 10.667 55.3333 10.667H8.66667Z" fill="#252525"/>
</svg>
