<svg width="48" height="48" viewBox="0 0 48 48" fill="none" xmlns="http://www.w3.org/2000/svg">
<path d="M20.6002 13.4801C20.7342 13.6245 20.8384 13.7939 20.9068 13.9787C20.9753 14.1634 21.0067 14.3598 20.9993 14.5566C20.9919 14.7535 20.9458 14.947 20.8635 15.126C20.7813 15.305 20.6647 15.4661 20.5202 15.6001L14.7042 21.0001L20.5202 26.4001C20.6646 26.534 20.7813 26.6951 20.8635 26.8741C20.9457 27.0532 20.9918 27.2466 20.9993 27.4435C21.0067 27.6404 20.9753 27.8368 20.9068 28.0215C20.8383 28.2062 20.7341 28.3756 20.6002 28.5201C20.4662 28.6645 20.3052 28.7812 20.1261 28.8634C19.9471 28.9456 19.7536 28.9917 19.5568 28.9991C19.3599 29.0066 19.1635 28.9751 18.9788 28.9067C18.7941 28.8382 18.6246 28.734 18.4802 28.6001L11.4802 22.1001C11.3287 21.9597 11.2079 21.7895 11.1253 21.6002C11.0427 21.4109 11 21.2066 11 21.0001C11 20.7935 11.0427 20.5892 11.1253 20.3999C11.2079 20.2107 11.3287 20.0405 11.4802 19.9001L18.4802 13.4001C18.6246 13.2661 18.7941 13.1619 18.9788 13.0934C19.1635 13.0249 19.3599 12.9935 19.5568 13.0009C19.7536 13.0084 19.9471 13.0545 20.1261 13.1367C20.3052 13.2189 20.4663 13.3356 20.6002 13.4801ZM27.4802 15.6001C27.1885 15.3295 27.0161 14.9542 27.0011 14.5566C26.9861 14.1591 27.1297 13.7718 27.4002 13.4801C27.6707 13.1883 28.046 13.016 28.4436 13.001C28.8412 12.986 29.2285 13.1295 29.5202 13.4001L36.5202 19.9001C36.6717 20.0405 36.7925 20.2107 36.8751 20.3999C36.9577 20.5892 37.0004 20.7935 37.0004 21.0001C37.0004 21.2066 36.9577 21.4109 36.8751 21.6002C36.7925 21.7895 36.6717 21.9597 36.5202 22.1001L29.5202 28.6001C29.2285 28.8706 28.8412 29.0141 28.4436 28.9991C28.046 28.9841 27.6707 28.8118 27.4002 28.5201C27.1297 28.2283 26.9861 27.8411 27.0011 27.4435C27.0161 27.0459 27.1885 26.6706 27.4802 26.4001L33.2962 21.0001L27.4802 15.6001Z" fill="url(#paint0_linear_163_3696)"/>
<path fill-rule="evenodd" clip-rule="evenodd" d="M3 8.5C3 6.568 4.568 5 6.5 5H41.5C43.432 5 45 6.568 45 8.5V33.5C45 34.4283 44.6312 35.3185 43.9749 35.9749C43.3185 36.6313 42.4283 37 41.5 37H22.12L14.974 44.146C14.5665 44.5533 14.0473 44.8307 13.4822 44.943C12.9171 45.0554 12.3313 44.9977 11.799 44.7772C11.2667 44.5568 10.8116 44.1834 10.4914 43.7044C10.1712 43.2254 10.0002 42.6622 10 42.086V37H6.5C5.57174 37 4.6815 36.6313 4.02513 35.9749C3.36875 35.3185 3 34.4283 3 33.5V8.5ZM6.5 8C6.36739 8 6.24021 8.05268 6.14645 8.14645C6.05268 8.24021 6 8.36739 6 8.5V33.5C6 33.776 6.224 34 6.5 34H11.5C11.8978 34 12.2794 34.158 12.5607 34.4393C12.842 34.7206 13 35.1022 13 35.5V41.88L20.44 34.44C20.721 34.1586 21.1023 34.0004 21.5 34H41.5C41.6326 34 41.7598 33.9473 41.8536 33.8536C41.9473 33.7598 42 33.6326 42 33.5V8.5C42 8.36739 41.9473 8.24021 41.8536 8.14645C41.7598 8.05268 41.6326 8 41.5 8H6.5Z" fill="url(#paint1_linear_163_3696)"/>
<defs>
<linearGradient id="paint0_linear_163_3696" x1="11" y1="12.9999" x2="39.2639" y2="20.8355" gradientUnits="userSpaceOnUse">
<stop stop-color="#209777"/>
<stop offset="1" stop-color="#BEEF71"/>
<stop offset="1" stop-color="#BEEF71"/>
</linearGradient>
<linearGradient id="paint1_linear_163_3696" x1="3" y1="5" x2="50.6367" y2="13.5336" gradientUnits="userSpaceOnUse">
<stop stop-color="#209777"/>
<stop offset="1" stop-color="#BEEF71"/>
<stop offset="1" stop-color="#BEEF71"/>
</linearGradient>
</defs>
</svg>
