<svg width="29" height="28" viewBox="0 0 29 28" fill="none" xmlns="http://www.w3.org/2000/svg">
<path fill-rule="evenodd" clip-rule="evenodd" d="M13.0777 0.666748C16.339 0.666748 18.9923 3.32008 18.9923 6.58141V7.82408C18.9923 8.37608 18.5443 8.82408 17.9923 8.82408C17.4403 8.82408 16.9923 8.37608 16.9923 7.82408V6.58141C16.9923 4.42141 15.2363 2.66675 13.0777 2.66675H6.57766C4.42166 2.66675 2.66699 4.42141 2.66699 6.58141V21.4201C2.66699 23.5787 4.42166 25.3334 6.57766 25.3334H13.0923C15.2417 25.3334 16.9923 23.5841 16.9923 21.4347V20.1774C16.9923 19.6254 17.4403 19.1774 17.9923 19.1774C18.5443 19.1774 18.9923 19.6254 18.9923 20.1774V21.4347C18.9923 24.6881 16.3443 27.3334 13.0923 27.3334H6.57766C3.31899 27.3334 0.666992 24.6814 0.666992 21.4201V6.58141C0.666992 3.32008 3.31899 0.666748 6.57766 0.666748H13.0777ZM23.8511 9.40541L27.7551 13.2921C27.79 13.3266 27.8211 13.3626 27.8497 13.4006L27.7551 13.2921C27.8024 13.3387 27.8444 13.3895 27.8808 13.4438C27.8969 13.4684 27.9123 13.4938 27.9267 13.52C27.9383 13.5404 27.949 13.5617 27.959 13.5834C27.9674 13.6025 27.9755 13.6217 27.983 13.6411C27.993 13.6664 28.0018 13.6925 28.0095 13.7189C28.0153 13.7397 28.0207 13.7604 28.0254 13.7814C28.0313 13.8069 28.036 13.8325 28.0397 13.8583C28.0418 13.8751 28.0438 13.8927 28.0454 13.9104C28.0485 13.9408 28.0498 13.9704 28.0498 14.0001L28.043 14.0827L28.0403 14.1357C28.04 14.138 28.0396 14.1402 28.0393 14.1425L28.0498 14.0001C28.0498 14.0741 28.0416 14.1474 28.0257 14.2186C28.0207 14.2397 28.0153 14.2605 28.0094 14.281C28.0018 14.3077 27.993 14.3337 27.9831 14.3594C27.9755 14.3785 27.9674 14.3977 27.9587 14.4165C27.949 14.4385 27.9383 14.4598 27.9268 14.4807C27.9123 14.5063 27.8969 14.5318 27.8803 14.5564C27.871 14.571 27.8607 14.5855 27.85 14.5996C27.8183 14.6414 27.7837 14.6807 27.7463 14.7171L23.8511 18.5961C23.6565 18.7907 23.4005 18.8881 23.1458 18.8881C22.8898 18.8881 22.6325 18.7907 22.4378 18.5934C22.0485 18.2014 22.0498 17.5694 22.4405 17.1801L24.627 15.0001H10.9947C10.4427 15.0001 9.99473 14.5521 9.99473 14.0001C9.99473 13.4481 10.4427 13.0001 10.9947 13.0001H24.6297L22.4405 10.8214C22.0498 10.4321 22.0471 9.80008 22.4378 9.40808C22.8271 9.01608 23.4591 9.01608 23.8511 9.40541Z" fill="black"/>
</svg>
