<svg width="76" height="76" viewBox="0 0 76 76" fill="none" xmlns="http://www.w3.org/2000/svg">
<g filter="url(#filter0_d_355_3823)">
<path d="M30.8889 66H45.1111M62.8889 66V9.11111C62.8889 7.22513 62.1397 5.41639 60.8061 4.0828C59.4725 2.7492 57.6638 2 55.7778 2H20.2222C18.3362 2 16.5275 2.7492 15.1939 4.0828C13.8603 5.41639 13.1111 7.22513 13.1111 9.11111V66H62.8889ZM62.8889 66H70H62.8889ZM62.8889 66H45.1111H62.8889ZM13.1111 66H6H13.1111ZM13.1111 66H30.8889H13.1111ZM27.3333 16.2222H30.8889H27.3333ZM27.3333 30.4444H30.8889H27.3333ZM45.1111 16.2222H48.6667H45.1111ZM45.1111 30.4444H48.6667H45.1111ZM30.8889 66V48.2222C30.8889 47.2792 31.2635 46.3749 31.9303 45.7081C32.5971 45.0413 33.5015 44.6667 34.4444 44.6667H41.5556C42.4985 44.6667 43.4029 45.0413 44.0697 45.7081C44.7365 46.3749 45.1111 47.2792 45.1111 48.2222V66H30.8889Z" stroke="black" stroke-width="4" stroke-linecap="round" stroke-linejoin="round" shape-rendering="crispEdges"/>
</g>
<defs>
<filter id="filter0_d_355_3823" x="0" y="0" width="76" height="76" filterUnits="userSpaceOnUse" color-interpolation-filters="sRGB">
<feFlood flood-opacity="0" result="BackgroundImageFix"/>
<feColorMatrix in="SourceAlpha" type="matrix" values="0 0 0 0 0 0 0 0 0 0 0 0 0 0 0 0 0 0 127 0" result="hardAlpha"/>
<feOffset dy="4"/>
<feGaussianBlur stdDeviation="2"/>
<feComposite in2="hardAlpha" operator="out"/>
<feColorMatrix type="matrix" values="0 0 0 0 0 0 0 0 0 0 0 0 0 0 0 0 0 0 0.25 0"/>
<feBlend mode="normal" in2="BackgroundImageFix" result="effect1_dropShadow_355_3823"/>
<feBlend mode="normal" in="SourceGraphic" in2="effect1_dropShadow_355_3823" result="shape"/>
</filter>
</defs>
</svg>
