<svg width="48" height="48" viewBox="0 0 48 48" fill="none" xmlns="http://www.w3.org/2000/svg">
<path d="M31.7952 30.1125C32.9296 29.5031 34.228 29.1562 35.6108 29.1562H35.6155C35.7561 29.1562 35.8217 28.9875 35.7186 28.8938C34.2806 27.6032 32.6378 26.5608 30.8577 25.8094C30.8389 25.8 30.8202 25.7953 30.8014 25.7859C33.7124 23.6719 35.6061 20.2359 35.6061 16.3594C35.6061 9.9375 30.4124 4.73438 24.0046 4.73438C17.5967 4.73438 12.4077 9.9375 12.4077 16.3594C12.4077 20.2359 14.3014 23.6719 17.2171 25.7859C17.1983 25.7953 17.1796 25.8 17.1608 25.8094C15.0655 26.6953 13.1858 27.9656 11.5686 29.5875C9.96077 31.1924 8.68072 33.095 7.79987 35.1891C6.93322 37.2397 6.46549 39.4367 6.42175 41.6625C6.4205 41.7125 6.42927 41.7623 6.44756 41.8089C6.46584 41.8555 6.49327 41.8979 6.52821 41.9337C6.56316 41.9696 6.60492 41.998 6.65104 42.0175C6.69716 42.0369 6.7467 42.0469 6.79675 42.0469H9.60456C9.80612 42.0469 9.97487 41.8828 9.97956 41.6813C10.0733 38.0625 11.5217 34.6734 14.0858 32.1047C16.7342 29.4469 20.2592 27.9844 24.0092 27.9844C26.6671 27.9844 29.2171 28.7203 31.4155 30.0984C31.472 30.1339 31.5368 30.1539 31.6035 30.1564C31.6701 30.1588 31.7362 30.1437 31.7952 30.1125V30.1125ZM24.0092 24.4219C21.8624 24.4219 19.8421 23.5828 18.3186 22.0594C17.5691 21.3118 16.9748 20.4232 16.5702 19.445C16.1655 18.4667 15.9584 17.418 15.9608 16.3594C15.9608 14.2078 16.7999 12.1828 18.3186 10.6594C19.8374 9.13594 21.8577 8.29688 24.0092 8.29688C26.1608 8.29688 28.1764 9.13594 29.6999 10.6594C30.4494 11.407 31.0437 12.2955 31.4483 13.2738C31.853 14.2521 32.0601 15.3007 32.0577 16.3594C32.0577 18.5109 31.2186 20.5359 29.6999 22.0594C28.1764 23.5828 26.1561 24.4219 24.0092 24.4219ZM41.2499 35.5781H37.3124V31.6406C37.3124 31.4344 37.1436 31.2656 36.9374 31.2656H34.3124C34.1061 31.2656 33.9374 31.4344 33.9374 31.6406V35.5781H29.9999C29.7936 35.5781 29.6249 35.7469 29.6249 35.9531V38.5781C29.6249 38.7844 29.7936 38.9531 29.9999 38.9531H33.9374V42.8906C33.9374 43.0969 34.1061 43.2656 34.3124 43.2656H36.9374C37.1436 43.2656 37.3124 43.0969 37.3124 42.8906V38.9531H41.2499C41.4561 38.9531 41.6249 38.7844 41.6249 38.5781V35.9531C41.6249 35.7469 41.4561 35.5781 41.2499 35.5781Z" fill="#F9F9F9"/>
</svg>
