<svg width="313" height="413" viewBox="0 0 313 413" fill="none" xmlns="http://www.w3.org/2000/svg">
<path d="M59.0586 398.136L68.9368 247H247.051L254.953 398.133L248.118 399.06C187.321 407.309 125.686 407.267 64.9001 398.936L59.0586 398.136Z" fill="#BEEF71" stroke="#252525" stroke-width="2"/>
<path d="M93.6747 91.5819C97.3721 76.5912 108.177 85.2169 111.699 87.9929L115 114.365C102.093 117.843 89.9772 106.573 93.6747 91.5819Z" fill="#FFC46B"/>
<path d="M93.6747 91.5819C97.3721 76.5912 108.177 85.2169 111.699 87.9929L115 114.365C102.093 117.843 89.9772 106.573 93.6747 91.5819Z" fill="#FFC46B"/>
<path d="M111.699 87.9929L112.691 87.8687L112.64 87.4616L112.318 87.2076L111.699 87.9929ZM93.6747 91.5819L92.7038 91.3424L93.6747 91.5819ZM115 114.365L115.26 115.331L116.1 115.105L115.992 114.241L115 114.365ZM112.318 87.2076C111.441 86.5162 110.063 85.4222 108.441 84.4231C106.828 83.4291 104.906 82.486 102.925 82.1398C100.915 81.7886 98.7985 82.0484 96.9352 83.5222C95.1047 84.9701 93.6557 87.4831 92.7038 91.3424L94.6456 91.8214C95.5424 88.1854 96.8306 86.155 98.176 85.0908C99.4886 84.0526 100.987 83.8315 102.581 84.11C104.203 84.3933 105.874 85.1902 107.392 86.1259C108.903 87.0564 110.196 88.0817 111.08 88.7782L112.318 87.2076ZM92.7038 91.3424C88.8365 107.022 101.568 119.021 115.26 115.331L114.74 113.4C102.618 116.666 91.118 106.123 94.6456 91.8214L92.7038 91.3424ZM115.992 114.241L112.691 87.8687L110.706 88.1171L114.008 114.49L115.992 114.241Z" fill="#252525"/>
<path d="M191.5 144.5C160.7 137.7 139 140 121.5 144.5C121.5 187.5 160 208 170.5 194C178.9 182.8 188 156.333 191.5 144.5Z" fill="#209777"/>
<path d="M121.5 144.5L121.251 143.532L120.5 143.725V144.5H121.5ZM191.5 144.5L192.459 144.784L192.763 143.755L191.716 143.524L191.5 144.5ZM170.5 194L169.7 193.4L170.5 194ZM121.749 145.468C139.108 141.005 160.648 138.713 191.284 145.476L191.716 143.524C160.752 136.687 138.892 138.995 121.251 143.532L121.749 145.468ZM190.541 144.216C188.798 150.108 185.658 159.655 181.908 169.119C178.147 178.611 173.813 187.917 169.7 193.4L171.3 194.6C175.587 188.883 180.003 179.356 183.767 169.856C187.542 160.329 190.702 150.725 192.459 144.784L190.541 144.216ZM169.7 193.4C167.356 196.525 163.391 197.823 158.536 197.226C153.676 196.629 148.049 194.133 142.687 189.844C131.981 181.279 122.5 165.689 122.5 144.5H120.5C120.5 166.311 130.269 182.471 141.438 191.406C147.014 195.867 152.98 198.558 158.292 199.211C163.609 199.865 168.394 198.475 171.3 194.6L169.7 193.4Z" fill="#252525"/>
<path d="M200.364 87.9436L200.301 87.9929L197 114.365C209.907 117.843 222.023 106.573 218.325 91.5819C214.65 76.679 203.949 85.1167 200.364 87.9436Z" fill="#FFC46B"/>
<path d="M200.301 87.9929L199.309 87.8687L199.36 87.4617L199.682 87.2077L200.301 87.9929ZM200.364 87.9436L200.983 88.7288L200.983 88.7288L200.364 87.9436ZM218.325 91.5819L219.296 91.3424H219.296L218.325 91.5819ZM197 114.365L196.74 115.331L195.9 115.105L196.008 114.241L197 114.365ZM199.682 87.2077L199.745 87.1583L200.983 88.7288L200.92 88.7782L199.682 87.2077ZM199.745 87.1583C200.64 86.4525 202.023 85.3607 203.645 84.3703C205.258 83.3851 207.173 82.4581 209.145 82.1278C211.147 81.7926 213.249 82.0696 215.097 83.5477C216.912 84.9996 218.35 87.5055 219.296 91.3424L217.354 91.8214C216.463 88.2068 215.185 86.1788 213.848 85.1097C212.544 84.0667 211.057 83.8356 209.476 84.1003C207.866 84.3699 206.204 85.1509 204.687 86.0771C203.179 86.9982 201.88 88.0212 200.983 88.7288L199.745 87.1583ZM219.296 91.3424C223.164 107.022 210.432 119.021 196.74 115.331L197.26 113.4C209.382 116.666 220.882 106.123 217.354 91.8214L219.296 91.3424ZM196.008 114.241L199.309 87.8687L201.294 88.1171L197.992 114.49L196.008 114.241Z" fill="#252525"/>
<path d="M109.91 110.194C107.668 99.5415 107.855 80.2332 108.228 71.9107C148.147 41.2838 188.403 59.1495 203.541 71.9107C203.354 77.459 204.662 89.1106 203.541 100.762C202.37 112.926 200.737 121.846 193.449 127.949C186.16 134.052 159.248 154.581 140.747 144.039C122.245 133.497 112.714 123.51 109.91 110.194Z" fill="#FFC46B"/>
<path d="M110.889 109.988C110.775 109.448 110.245 109.102 109.704 109.216C109.164 109.33 108.818 109.86 108.932 110.4L110.889 109.988ZM204.536 100.858C204.589 100.308 204.186 99.8196 203.636 99.7667C203.087 99.7138 202.598 100.117 202.545 100.666L204.536 100.858ZM108.932 110.4C111.824 124.138 121.664 134.317 140.252 144.908L141.242 143.17C122.826 132.677 113.603 122.882 110.889 109.988L108.932 110.4ZM140.252 144.908C149.945 150.431 161.702 147.753 171.721 143.145C181.79 138.513 190.419 131.791 194.091 128.716L192.807 127.182C189.19 130.211 180.719 136.804 170.885 141.328C161 145.874 150.05 148.189 141.242 143.17L140.252 144.908ZM194.091 128.716C201.729 122.32 203.369 112.988 204.536 100.858L202.545 100.666C201.371 112.864 199.745 121.372 192.807 127.182L194.091 128.716Z" fill="#252525"/>
<path d="M108.95 93C123.448 84.1236 125.608 70.0692 124.876 64.1515C122.313 63.5968 115.32 64.2625 107.852 71.3637C100.383 78.4648 105.472 88.7467 108.95 93Z" fill="#252525"/>
<path d="M203.05 93C188.552 84.1236 186.392 70.0692 187.124 64.1515C189.687 63.5968 196.68 64.2625 204.148 71.3637C211.617 78.4648 206.528 88.7467 203.05 93Z" fill="#252525"/>
<path d="M111.976 29.5152L108 72C127.002 62.1699 145.55 59.4137 161.5 60.1779C168.775 60.5265 175.509 61.6074 181.5 63.0834C191.274 65.4917 199.069 68.952 204 72L197.751 29.5152C166.85 -22.1286 127.692 7.99697 111.976 29.5152Z" fill="#209777"/>
<path d="M108 72L107.004 71.9068L106.834 73.7292L108.459 72.8882L108 72ZM111.976 29.5152L111.169 28.9254L111.006 29.1478L110.981 29.422L111.976 29.5152ZM197.751 29.5152L198.741 29.3697L198.712 29.1727L198.61 29.0018L197.751 29.5152ZM203.011 72.1455C203.091 72.6919 203.599 73.0697 204.146 72.9894C204.692 72.909 205.07 72.4009 204.989 71.8545L203.011 72.1455ZM161.452 61.1768C162.004 61.2032 162.472 60.7775 162.499 60.2258C162.525 59.6742 162.1 59.2055 161.548 59.1791L161.452 61.1768ZM108.996 72.0932L112.972 29.6084L110.981 29.422L107.004 71.9068L108.996 72.0932ZM112.784 30.105C120.578 19.433 134.118 6.73756 149.404 3.05158C157.011 1.21708 165.05 1.61225 173.078 5.59767C181.12 9.59064 189.235 17.2293 196.893 30.0287L198.61 29.0018C190.817 15.9793 182.449 8.01716 173.967 3.80629C165.47 -0.412123 156.944 -0.823886 148.935 1.10731C132.988 4.95272 119.09 18.0792 111.169 28.9254L112.784 30.105ZM196.762 29.6607L203.011 72.1455L204.989 71.8545L198.741 29.3697L196.762 29.6607ZM161.548 59.1791C145.443 58.4075 126.717 61.1915 107.541 71.1118L108.459 72.8882C127.287 63.1483 145.656 60.42 161.452 61.1768L161.548 59.1791Z" fill="#252525"/>
<path d="M150.335 188L156.335 191L162.335 188C161.002 184.5 159.135 177.1 162.335 175.5C166.335 173.5 185.835 162 191.335 144C192.002 144.167 193.835 147.1 195.835 157.5C214.335 161.667 252.635 171.1 257.835 175.5C264.335 181 316.835 275 311.835 295C306.835 315 299.835 336 264.335 330.5C235.935 326.1 194.502 302.667 177.335 291.5C177.486 286.259 177.839 279.306 178.444 272H134.226C134.832 279.306 135.184 286.259 135.335 291.5C118.168 302.667 76.7351 326.1 48.3351 330.5C12.8351 336 5.83504 315 0.835044 295C-4.16496 275 48.335 181 54.835 175.5C60.035 171.1 98.335 161.667 116.835 157.5C118.835 147.1 120.668 144.167 121.335 144C126.835 162 146.335 173.5 150.335 175.5C153.535 177.1 151.668 184.5 150.335 188Z" fill="#BEEF71"/>
<path d="M171.149 223.539C173.103 237.795 182.273 241.899 186.614 242.169H205.335L199.637 277C198.823 277 193.94 276.676 180.917 275.38C164.637 273.76 158.126 263.23 155.684 255.939C155.388 255.056 155.092 253.97 154.797 252.725C154.017 259.74 152.757 264.955 150.8 266.47C144.94 271.006 130.994 272.68 124.754 272.95C123.126 263.5 120.684 243.627 123.94 239.739C127.196 240.549 134.358 241.359 136.963 238.119C140.219 234.069 141.033 213.008 141.033 209.768C141.033 207.096 141.847 206.528 143.475 205.718C142.661 201.938 142.01 194.378 145.917 194.378C145.645 190.328 145.917 182.389 149.172 183.037C153.242 183.847 154.056 183.847 154.87 193.568C154.908 194.016 154.949 194.565 154.992 195.206C155.522 194.82 156.046 194.546 156.498 194.378C155.413 190.598 154.87 183.037 161.382 183.037C169.521 183.037 168.707 205.718 171.149 223.539Z" fill="#FFC46B"/>
<path d="M171.149 223.585C173.103 237.829 182.273 241.93 186.614 242.199H205.335L199.637 277C198.823 277 193.94 276.676 180.917 275.381C164.637 273.763 158.126 263.242 155.684 255.958C153.242 248.674 150.8 227.632 149.172 217.11C147.87 208.694 150.8 205.51 152.428 204.971C150.475 198.496 154.327 195.259 156.498 194.45C155.413 190.673 154.87 183.119 161.382 183.119C169.521 183.119 168.707 205.78 171.149 223.585Z" fill="#FFC46B"/>
<path d="M186.614 242.199L186.552 243.197L186.583 243.199H186.614V242.199ZM171.149 223.585L172.14 223.449L171.149 223.585ZM156.498 194.45L156.847 195.387L157.715 195.063L157.459 194.173L156.498 194.45ZM152.428 204.971L152.743 205.92L153.667 205.614L153.386 204.682L152.428 204.971ZM149.172 217.11L148.184 217.263L149.172 217.11ZM155.684 255.958L154.736 256.276L155.684 255.958ZM180.917 275.381L180.818 276.376L180.917 275.381ZM199.637 277V278H200.487L200.624 277.162L199.637 277ZM205.335 242.199L206.322 242.361L206.512 241.199H205.335V242.199ZM123.94 239.771L124.181 238.801L123.575 238.65L123.173 239.129L123.94 239.771ZM136.963 238.153L137.742 238.78L136.963 238.153ZM143.475 205.78L143.92 206.675L144.616 206.329L144.452 205.569L143.475 205.78ZM145.917 194.45V195.45H146.986L146.914 194.383L145.917 194.45ZM149.172 183.119L149.336 184.106L149.172 183.119ZM154.021 195.342C154.067 195.893 154.551 196.301 155.101 196.255C155.651 196.209 156.06 195.726 156.014 195.175L154.021 195.342ZM151.412 267.27C151.849 266.932 151.929 266.304 151.591 265.867C151.253 265.43 150.625 265.35 150.189 265.688L151.412 267.27ZM124.754 272.953L123.768 273.123L123.918 273.99L124.797 273.952L124.754 272.953ZM186.676 241.201C182.805 240.961 174.028 237.215 172.14 223.449L170.158 223.721C172.177 238.443 181.742 242.898 186.552 243.197L186.676 241.201ZM172.14 223.449C171.533 219.028 171.128 214.299 170.734 209.666C170.34 205.045 169.956 200.513 169.392 196.535C168.83 192.574 168.077 189.062 166.907 186.52C165.74 183.986 164.004 182.119 161.382 182.119V184.119C162.829 184.119 164.044 185.085 165.09 187.356C166.132 189.619 166.855 192.886 167.412 196.816C167.967 200.728 168.346 205.199 168.741 209.836C169.135 214.459 169.544 219.24 170.158 223.721L172.14 223.449ZM161.382 182.119C159.548 182.119 158.109 182.657 157.048 183.617C156.003 184.562 155.418 185.834 155.116 187.144C154.521 189.736 154.971 192.755 155.537 194.726L157.459 194.173C156.94 192.367 156.576 189.721 157.066 187.592C157.307 186.542 157.739 185.689 158.39 185.1C159.025 184.525 159.959 184.119 161.382 184.119V182.119ZM156.149 193.513C154.87 193.989 153.169 195.143 152.05 197.087C150.91 199.066 150.422 201.782 151.471 205.26L153.386 204.682C152.481 201.685 152.942 199.545 153.783 198.085C154.644 196.589 155.955 195.719 156.847 195.387L156.149 193.513ZM152.114 204.021C149.777 204.796 146.855 208.675 148.184 217.263L150.161 216.958C148.885 208.712 151.824 206.224 152.743 205.92L152.114 204.021ZM148.184 217.263C149.002 222.547 150.006 230.353 151.134 237.896C152.249 245.357 153.481 252.533 154.736 256.276L156.632 255.64C155.445 252.098 154.235 245.112 153.112 237.6C152.001 230.171 150.971 222.195 150.161 216.958L148.184 217.263ZM154.736 256.276C157.258 263.8 164.024 274.707 180.818 276.376L181.015 274.386C165.251 272.819 158.993 262.683 156.632 255.64L154.736 256.276ZM180.818 276.376C193.816 277.669 198.761 278 199.637 278V276C198.886 276 194.063 275.684 181.015 274.386L180.818 276.376ZM200.624 277.162L206.322 242.361L204.348 242.038L198.651 276.838L200.624 277.162ZM205.335 241.199H186.614V243.199H205.335V241.199ZM123.699 240.742C125.396 241.164 128.097 241.585 130.736 241.479C133.309 241.376 136.149 240.759 137.742 238.78L136.184 237.526C135.172 238.783 133.129 239.381 130.656 239.48C128.248 239.577 125.74 239.188 124.181 238.801L123.699 240.742ZM137.742 238.78C138.257 238.139 138.671 237.239 139.018 236.232C139.371 235.209 139.68 233.997 139.952 232.677C140.496 230.035 140.907 226.886 141.214 223.785C141.828 217.583 142.033 211.48 142.033 209.827H140.033C140.033 211.41 139.831 217.447 139.224 223.588C138.92 226.658 138.517 229.73 137.993 232.273C137.731 233.545 137.442 234.667 137.127 235.581C136.806 236.512 136.483 237.155 136.184 237.526L137.742 238.78ZM142.033 209.827C142.033 208.571 142.229 208.01 142.46 207.682C142.704 207.337 143.092 207.087 143.92 206.675L143.03 204.885C142.23 205.282 141.396 205.721 140.826 206.529C140.244 207.355 140.033 208.412 140.033 209.827H142.033ZM144.452 205.569C144.056 203.733 143.71 201.012 143.921 198.793C144.027 197.675 144.265 196.792 144.622 196.216C144.945 195.696 145.338 195.45 145.917 195.45V193.45C144.542 193.45 143.551 194.147 142.922 195.162C142.328 196.12 142.048 197.362 141.93 198.604C141.693 201.106 142.079 204.051 142.497 205.991L144.452 205.569ZM146.914 194.383C146.781 192.397 146.781 189.798 147.196 187.661C147.404 186.589 147.704 185.703 148.093 185.078C148.473 184.467 148.885 184.18 149.336 184.106L149.009 182.133C147.822 182.329 146.975 183.089 146.395 184.021C145.824 184.939 145.463 186.093 145.233 187.28C144.771 189.661 144.781 192.455 144.919 194.516L146.914 194.383ZM149.336 184.106C150.475 183.917 151.157 183.999 151.6 184.211C152.008 184.406 152.371 184.789 152.689 185.607C153.016 186.445 153.252 187.631 153.455 189.274C153.657 190.905 153.817 192.903 154.021 195.342L156.014 195.175C155.811 192.758 155.648 190.71 155.44 189.028C155.234 187.358 154.975 185.964 154.553 184.88C154.122 183.776 153.482 182.894 152.463 182.407C151.479 181.936 150.312 181.917 149.009 182.133L149.336 184.106ZM150.189 265.688C147.455 267.802 142.705 269.319 137.72 270.335C132.78 271.341 127.786 271.821 124.711 271.954L124.797 273.952C127.961 273.816 133.061 273.325 138.119 272.294C143.132 271.273 148.285 269.688 151.412 267.27L150.189 265.688ZM125.739 272.784C124.929 268.086 123.918 260.8 123.514 254.217C123.311 250.923 123.263 247.835 123.461 245.347C123.561 244.102 123.719 243.033 123.941 242.176C124.168 241.302 124.439 240.733 124.706 240.414L123.173 239.129C122.627 239.781 122.262 240.683 122.005 241.675C121.744 242.684 121.572 243.877 121.468 245.188C121.259 247.81 121.313 251.004 121.517 254.34C121.927 261.016 122.95 268.378 123.768 273.123L125.739 272.784Z" fill="#252525"/>
<g filter="url(#filter0_d_216_3125)">
<path d="M145.956 193.338C145.408 193.271 144.909 193.662 144.842 194.21C144.776 194.758 145.166 195.257 145.714 195.324L145.956 193.338ZM150.841 201.61C150.902 202.159 151.397 202.555 151.945 202.494C152.494 202.433 152.89 201.938 152.829 201.39L150.841 201.61ZM142.958 205.074C142.446 205.282 142.201 205.866 142.409 206.377C142.617 206.889 143.201 207.134 143.712 206.926L142.958 205.074ZM148.348 209.811C148.437 210.356 148.952 210.726 149.497 210.637C150.042 210.547 150.411 210.033 150.322 209.488L148.348 209.811ZM151.978 204.066C151.462 204.263 151.204 204.841 151.401 205.357C151.598 205.873 152.176 206.131 152.692 205.934L151.978 204.066ZM163.335 229L162.354 229.193L164.334 228.959L163.335 229ZM155.853 193.397C155.337 193.594 155.079 194.172 155.276 194.688C155.473 195.204 156.051 195.462 156.567 195.265L155.853 193.397ZM145.714 195.324C148.393 195.649 149.376 196.267 149.873 197.026C150.145 197.441 150.332 197.986 150.477 198.76C150.625 199.543 150.713 200.458 150.841 201.61L152.829 201.39C152.707 200.292 152.608 199.269 152.443 198.391C152.276 197.503 152.026 196.663 151.547 195.931C150.544 194.399 148.777 193.681 145.956 193.338L145.714 195.324ZM143.712 206.926C144.094 206.771 145.166 206.684 146.225 207.102C147.204 207.489 148.097 208.274 148.348 209.811L150.322 209.488C149.94 207.155 148.492 205.847 146.96 205.242C145.507 204.668 143.895 204.692 142.958 205.074L143.712 206.926ZM152.692 205.934C153.601 205.587 155.155 205.35 156.49 205.794C157.136 206.009 157.722 206.38 158.184 206.974C158.649 207.572 159.032 208.453 159.174 209.758L161.162 209.541C160.988 207.944 160.498 206.692 159.764 205.747C159.028 204.8 158.091 204.219 157.122 203.897C155.226 203.266 153.181 203.607 151.978 204.066L152.692 205.934ZM159.174 209.758C159.813 215.61 161.562 225.16 162.354 229.193L164.316 228.807C163.525 224.777 161.791 215.3 161.162 209.541L159.174 209.758ZM156.567 195.265C157.448 194.928 158.676 194.838 159.638 195.44C160.547 196.01 161.543 197.411 161.543 200.781H163.543C163.543 197.056 162.428 194.829 160.699 193.745C159.022 192.695 157.083 192.927 155.853 193.397L156.567 195.265ZM161.543 200.781C161.543 207.9 162.072 222.594 162.336 229.041L164.334 228.959C164.07 222.505 163.543 207.852 163.543 200.781H161.543Z" fill="#252525"/>
</g>
<path d="M125.335 232.5L115.835 237L123.835 298L135.335 291.5C135.335 261.9 131.335 239 125.335 232.5Z" fill="#209777" stroke="#252525" stroke-width="2"/>
<path d="M213.835 245L196.835 303.5L177.335 291C178.335 261.5 180.835 239 187.335 232.5L213.835 245Z" fill="#BEEF71"/>
<path d="M177.335 291.5L186.835 297.5C189.235 265.1 197.168 245 200.835 239L187.335 232.5C175.735 237.7 175.835 274 177.335 291.5Z" fill="#209777" stroke="#252525" stroke-width="2"/>
<path d="M125.773 233.399C126.269 233.157 126.476 232.559 126.234 232.062C125.992 231.566 125.394 231.359 124.897 231.601L125.773 233.399ZM28.3972 278.601C27.9007 278.843 27.6942 279.441 27.936 279.938C28.1778 280.434 28.7764 280.641 29.2729 280.399L28.3972 278.601ZM187.776 231.603C187.281 231.359 186.681 231.563 186.438 232.059C186.194 232.555 186.398 233.154 186.894 233.397L187.776 231.603ZM275.394 276.897C275.89 277.141 276.489 276.937 276.732 276.441C276.976 275.945 276.772 275.346 276.276 275.103L275.394 276.897ZM124.897 231.601L28.3972 278.601L29.2729 280.399L125.773 233.399L124.897 231.601ZM186.894 233.397L275.394 276.897L276.276 275.103L187.776 231.603L186.894 233.397Z" fill="#252525"/>
<path d="M15.6988 248.504C15.9771 248.027 15.816 247.415 15.3389 247.136C14.8619 246.858 14.2496 247.019 13.9713 247.496L15.6988 248.504ZM6.83506 313.5L7.65348 312.925L6.83506 313.5ZM77.6665 322.943C78.1876 322.76 78.4616 322.19 78.2785 321.669C78.0954 321.147 77.5246 320.873 77.0036 321.057L77.6665 322.943ZM13.9713 247.496C9.84621 254.568 4.50046 266.342 1.84474 278.741C-0.803029 291.102 -0.826741 304.328 6.01665 314.075L7.65348 312.925C1.29687 303.872 1.18982 291.348 3.80039 279.159C6.403 267.008 11.6572 255.432 15.6988 248.504L13.9713 247.496ZM6.01665 314.075C14.3857 325.994 23.0056 331.594 34.3235 332.435C45.4999 333.265 59.1912 329.435 77.6665 322.943L77.0036 321.057C58.479 327.565 45.1702 331.235 34.4716 330.44C23.9145 329.656 15.7844 324.506 7.65348 312.925L6.01665 314.075Z" fill="#252525"/>
<path d="M241.771 323.6C241.274 323.359 240.676 323.567 240.435 324.064C240.194 324.561 240.402 325.159 240.899 325.4L241.771 323.6ZM304.835 315L305.721 315.465L304.835 315ZM283.74 217.575C283.506 217.075 282.91 216.86 282.41 217.095C281.91 217.329 281.695 217.925 281.93 218.425L283.74 217.575ZM240.899 325.4C249.073 329.361 261.736 333.464 274.108 333.318C286.514 333.171 298.761 328.732 305.721 315.465L303.95 314.535C297.438 326.948 286.018 331.176 274.084 331.318C262.115 331.459 249.764 327.473 241.771 323.6L240.899 325.4ZM305.721 315.465C309.77 307.745 311.883 300.799 312.379 293.939C312.875 287.081 311.751 280.371 309.412 273.13C307.076 265.901 303.517 258.112 299.125 249.101C294.723 240.07 289.487 229.818 283.74 217.575L281.93 218.425C287.683 230.682 292.947 240.992 297.327 249.977C301.716 258.982 305.22 266.662 307.508 273.745C309.794 280.817 310.857 287.263 310.385 293.795C309.912 300.326 307.9 307.005 303.95 314.535L305.721 315.465Z" fill="#252525"/>
<path d="M29.9631 215.51C29.6927 215.992 29.8639 216.602 30.3455 216.872C30.8271 217.142 31.4367 216.971 31.707 216.49L29.9631 215.51ZM49.8351 182.5L50.6244 183.114L49.8351 182.5ZM68.3351 170L68.0079 169.055L68.3351 170ZM96.5139 162.984C97.0573 162.885 97.4177 162.364 97.3189 161.821C97.2201 161.278 96.6995 160.917 96.1562 161.016L96.5139 162.984ZM31.707 216.49C34.3733 211.74 38.436 204.242 42.1597 197.522C44.0255 194.155 45.8088 190.978 47.2991 188.421C48.803 185.84 49.9732 183.951 50.6244 183.114L49.0457 181.886C48.2969 182.849 47.0588 184.86 45.571 187.414C44.0696 189.99 42.278 193.182 40.4104 196.553C36.6674 203.308 32.6301 210.76 29.9631 215.51L31.707 216.49ZM50.6244 183.114C51.5156 181.968 52.1885 180.877 52.8125 179.987C53.4539 179.071 54.1287 178.232 55.1538 177.365C57.2297 175.607 60.8317 173.656 68.6622 170.945L68.0079 169.055C60.132 171.781 56.234 173.83 53.8615 175.838C52.6624 176.853 51.8759 177.838 51.1746 178.839C50.4558 179.865 49.9045 180.782 49.0457 181.886L50.6244 183.114ZM68.6622 170.945C81.6305 166.456 92.9124 163.639 96.5139 162.984L96.1562 161.016C92.4244 161.695 81.0396 164.544 68.0079 169.055L68.6622 170.945Z" fill="#252525"/>
<path d="M96.1389 161.019C95.5974 161.128 95.2462 161.655 95.3545 162.196C95.4628 162.738 95.9896 163.089 96.5312 162.981L96.1389 161.019ZM116.335 158L116.531 158.981L117.234 158.84L117.327 158.129L116.335 158ZM121.335 144.5L122.291 144.206L121.923 143.012L120.839 143.632L121.335 144.5ZM137.725 168.293C138.163 168.629 138.791 168.547 139.128 168.11C139.464 167.672 139.383 167.044 138.945 166.707L137.725 168.293ZM168.263 170.68C167.81 170.995 167.699 171.619 168.015 172.072C168.33 172.525 168.954 172.636 169.407 172.32L168.263 170.68ZM191.335 144.5L191.986 143.741L190.913 142.821L190.402 144.139L191.335 144.5ZM195.335 157L194.336 157.053L194.377 157.818L195.126 157.978L195.335 157ZM268.902 194.359C269.1 194.874 269.679 195.132 270.194 194.933C270.71 194.735 270.967 194.156 270.768 193.641L268.902 194.359ZM96.5312 162.981L116.531 158.981L116.139 157.019L96.1389 161.019L96.5312 162.981ZM117.327 158.129C117.571 156.254 118.111 153.337 118.928 150.709C119.336 149.394 119.804 148.183 120.323 147.22C120.857 146.229 121.378 145.627 121.831 145.368L120.839 143.632C119.892 144.173 119.151 145.179 118.563 146.271C117.96 147.39 117.447 148.735 117.018 150.116C116.159 152.88 115.599 155.913 115.343 157.871L117.327 158.129ZM120.379 144.794C121.764 149.294 127.137 160.148 137.725 168.293L138.945 166.707C128.733 158.852 123.573 148.372 122.291 144.206L120.379 144.794ZM169.407 172.32C172.217 170.362 176.697 166.663 181.084 161.889C185.467 157.119 189.805 151.222 192.268 144.861L190.402 144.139C188.065 150.178 183.904 155.864 179.611 160.536C175.323 165.203 170.953 168.805 168.263 170.68L169.407 172.32ZM190.684 145.259C191.096 145.612 191.919 146.671 192.692 148.64C193.453 150.581 194.142 153.349 194.336 157.053L196.334 156.947C196.129 153.051 195.4 150.069 194.553 147.91C193.717 145.779 192.741 144.388 191.986 143.741L190.684 145.259ZM195.126 157.978C203.697 159.809 217.004 162.88 229.061 166.14C235.091 167.771 240.796 169.446 245.435 171.034C250.118 172.637 253.587 174.11 255.25 175.311L256.421 173.689C254.483 172.29 250.736 170.734 246.082 169.141C241.385 167.533 235.633 165.846 229.584 164.21C217.483 160.937 204.139 157.858 195.544 156.022L195.126 157.978ZM255.25 175.311C258.71 177.81 261.714 181.488 264.071 185.12C266.425 188.744 268.093 192.257 268.902 194.359L270.768 193.641C269.91 191.41 268.179 187.772 265.749 184.03C263.323 180.295 260.161 176.39 256.421 173.689L255.25 175.311Z" fill="#252525"/>
<path d="M43.3351 249.5C47.3351 250.5 56.9351 254.4 63.3351 262" stroke="#252525" stroke-width="2" stroke-linecap="round"/>
<path d="M262.835 269.5C262.835 265.167 264.935 256.3 273.335 253.5" stroke="#252525" stroke-width="2" stroke-linecap="round"/>
<path d="M75.8351 220L73.3351 257" stroke="#252525" stroke-width="2" stroke-linecap="round"/>
<path d="M237.335 221.5C238.135 223.9 240.002 247 240.835 258.5" stroke="#252525" stroke-width="2" stroke-linecap="round"/>
<path d="M67.8351 227C70.3351 227.667 75.1351 231.4 74.3351 241M247.835 231C245.002 232.167 239.535 238.1 240.335 252.5" stroke="#252525" stroke-width="2" stroke-linecap="round"/>
<path d="M96.8351 313C105.335 308.5 123.835 298.1 129.835 294.5" stroke="#252525" stroke-width="2" stroke-linecap="round"/>
<defs>
<filter id="filter0_d_216_3125" x="138.335" y="193" width="29.9994" height="44.1926" filterUnits="userSpaceOnUse" color-interpolation-filters="sRGB">
<feFlood flood-opacity="0" result="BackgroundImageFix"/>
<feColorMatrix in="SourceAlpha" type="matrix" values="0 0 0 0 0 0 0 0 0 0 0 0 0 0 0 0 0 0 127 0" result="hardAlpha"/>
<feOffset dy="4"/>
<feGaussianBlur stdDeviation="2"/>
<feComposite in2="hardAlpha" operator="out"/>
<feColorMatrix type="matrix" values="0 0 0 0 0 0 0 0 0 0 0 0 0 0 0 0 0 0 0.25 0"/>
<feBlend mode="normal" in2="BackgroundImageFix" result="effect1_dropShadow_216_3125"/>
<feBlend mode="normal" in="SourceGraphic" in2="effect1_dropShadow_216_3125" result="shape"/>
</filter>
</defs>
</svg>
