<svg width="512" height="512" viewBox="0 0 512 512" fill="none" xmlns="http://www.w3.org/2000/svg">
<path d="M363.274 148.726C342.054 127.491 315.013 113.027 285.572 107.163C256.13 101.299 225.611 104.298 197.874 115.781C170.137 127.265 146.429 146.716 129.749 171.675C113.069 196.635 104.166 225.98 104.166 256C104.166 286.02 113.069 315.365 129.749 340.325C146.429 365.284 170.137 384.735 197.874 396.219C225.611 407.702 256.13 410.701 285.572 404.837C315.013 398.973 342.054 384.509 363.274 363.274C391.712 334.817 407.687 296.231 407.687 256C407.687 215.769 391.712 177.183 363.274 148.726V148.726ZM350.799 350.799C332.05 369.548 308.162 382.316 282.156 387.488C256.15 392.661 229.195 390.006 204.698 379.859C180.201 369.712 159.264 352.528 144.533 330.482C129.802 308.435 121.939 282.515 121.939 256C121.939 229.485 129.802 203.565 144.533 181.518C159.264 159.472 180.201 142.289 204.698 132.141C229.195 121.994 256.15 119.339 282.156 124.512C308.162 129.684 332.05 142.452 350.799 161.201C363.248 173.65 373.124 188.429 379.861 204.695C386.599 220.961 390.067 238.394 390.067 256C390.067 273.606 386.599 291.039 379.861 307.305C373.124 323.571 363.248 338.35 350.799 350.799Z" fill="#209777"/>
<path d="M512 104.175V407.799C512.039 425.795 507.389 443.489 498.508 459.141L436.287 396.919C433.382 394.012 429.599 392.145 425.525 391.608C421.45 391.07 417.313 391.893 413.754 393.948L393.549 373.64C423.947 338.097 439.401 292.163 436.671 245.474C433.94 198.784 413.238 154.965 378.904 123.207C344.571 91.4487 299.274 74.218 252.514 75.1285C205.754 76.0391 161.162 95.0202 128.091 128.091C95.0201 161.162 76.039 205.754 75.1285 252.514C74.2179 299.275 91.4487 344.571 123.207 378.905C154.965 413.238 198.784 433.941 245.474 436.671C292.163 439.401 338.097 423.947 373.64 393.549L393.909 413.818C391.857 417.377 391.035 421.513 391.569 425.586C392.104 429.659 393.966 433.443 396.867 436.351L459.141 498.521C443.496 507.383 425.818 512.028 407.838 512H104.175C76.5459 512 50.0486 501.024 30.5121 481.488C10.9755 461.951 0 435.454 0 407.825L0 104.175C0 76.5459 10.9755 50.0487 30.5121 30.5121C50.0486 10.9755 76.5459 3.17587e-06 104.175 3.17587e-06H407.799C421.482 -0.00337524 435.031 2.68869 447.673 7.92245C460.315 13.1562 471.802 20.8291 481.479 30.503C491.155 40.1769 498.831 51.6621 504.067 64.3029C509.304 76.9436 512 90.4922 512 104.175V104.175Z" fill="#209777"/>
<path d="M159.825 264.939C159.825 264.939 145.986 292.32 168.827 297.439C168.827 297.439 203.437 305.554 202.819 277.272C202.459 260.553 200.414 233.043 194.691 210.78L199.835 199.656L208.838 213.494C208.838 213.494 207.552 243.538 209.34 278.88C209.983 291.329 201.623 312.486 173.637 312.486C173.637 312.486 149.42 312.589 148.365 289.336C148.391 289.246 148.391 273.453 159.825 264.939Z" fill="#209777"/>
<path d="M211.771 222.857V238.097C211.716 238.839 211.814 239.585 212.058 240.288C212.301 240.991 212.686 241.636 213.188 242.186C213.69 242.735 214.299 243.175 214.978 243.481C215.656 243.786 216.39 243.95 217.134 243.962C217.134 243.962 234.535 245.415 241.055 272.257C241.055 272.295 246.573 236.194 211.771 222.857Z" fill="#209777"/>
<path d="M201.662 311.65C201.662 311.65 254.701 302.081 267.138 215.629L272.951 226.059C272.951 226.059 269.337 296.474 299.625 292.255C299.625 292.255 315.277 290.648 323.302 284.037C323.302 284.037 305.451 268.784 287.394 282.224C287.394 282.224 296.397 254.842 319.894 264.025C319.894 264.025 345.757 277.619 363.621 277.414L354.619 292.654C344.754 291.504 334.758 292.531 325.334 295.663C325.334 295.663 317.913 298.236 311.495 301.078C311.495 301.078 276.771 319.225 268.771 281.786C266.629 270.147 265.766 258.309 266.199 246.483C266.199 246.483 265.736 317.733 201.662 311.65Z" fill="#209777"/>
</svg>
